<svg xmlns="http://www.w3.org/2000/svg" viewBox="0 0 360 240">
  <defs>
    <linearGradient id="aiGradient" x1="0%" y1="0%" x2="100%" y2="100%">
      <stop offset="0%" stop-color="#5b8def" />
      <stop offset="100%" stop-color="#8a5bff" />
    </linearGradient>
    <linearGradient id="chip" x1="0%" y1="0%" x2="0%" y2="100%">
      <stop offset="0%" stop-color="#fff" stop-opacity="0.9" />
      <stop offset="100%" stop-color="#dfe8ff" stop-opacity="0.9" />
    </linearGradient>
  </defs>
  <rect width="360" height="240" rx="28" fill="url(#aiGradient)" />
  <g fill="none" stroke="#ffffff" stroke-opacity="0.5" stroke-width="3" stroke-linecap="round">
    <path d="M40 120h35" />
    <path d="M285 120h35" />
    <path d="M180 40v35" />
    <path d="M180 165v35" />
  </g>
  <g transform="translate(105 55)">
    <rect width="150" height="130" rx="22" fill="#1f2d4d" opacity="0.18" />
    <rect x="15" y="15" width="120" height="100" rx="18" fill="url(#chip)" />
    <rect x="34" y="34" width="82" height="62" rx="12" fill="#5b8def" fill-opacity="0.18" />
    <g stroke="#5b8def" stroke-width="4" stroke-linecap="round" stroke-linejoin="round" fill="none">
      <path d="M55 70h40" />
      <path d="M75 50v40" />
      <circle cx="75" cy="70" r="20" />
      <path d="M55 70c0-11 9-20 20-20" />
      <path d="M95 70c0 11-9 20-20 20" />
    </g>
    <g fill="#5b8def" opacity="0.55">
      <circle cx="25" cy="20" r="4" />
      <circle cx="125" cy="20" r="4" />
      <circle cx="25" cy="110" r="4" />
      <circle cx="125" cy="110" r="4" />
    </g>
  </g>
  <g fill="#ffffff" fill-opacity="0.65">
    <circle cx="80" cy="60" r="8" />
    <circle cx="300" cy="70" r="6" />
    <circle cx="280" cy="180" r="10" />
    <circle cx="70" cy="180" r="5" />
  </g>
</svg>
